<svg xmlns="http://www.w3.org/2000/svg" xmlns:xlink="http://www.w3.org/1999/xlink" width="50" zoomAndPan="magnify" viewBox="0 0 37.5 74.999998" height="100" preserveAspectRatio="xMidYMid meet" version="1.0"><defs><g/></defs><g fill="#ff00ff" fill-opacity="1"><g transform="translate(6.661193, 70.707257)"><g><path d="M 25.328125 -34.976562 C 24.121094 -34.976562 23.246094 -33.988281 23.246094 -32.894531 L 23.246094 -12.390625 C 23.246094 -7.785156 19.515625 -4.167969 15.019531 -4.167969 C 10.527344 -4.167969 6.796875 -7.785156 6.796875 -12.390625 L 6.796875 -32.894531 C 6.796875 -37.386719 10.527344 -41.117188 15.019531 -41.117188 C 16.117188 -41.117188 17.105469 -41.992188 17.105469 -43.199219 C 17.105469 -44.296875 16.117188 -45.28125 15.019531 -45.28125 C 10.527344 -45.28125 6.796875 -48.902344 6.796875 -53.503906 C 6.796875 -58 10.527344 -61.730469 15.019531 -61.730469 C 19.515625 -61.730469 23.246094 -58 23.246094 -53.503906 C 23.246094 -52.300781 24.121094 -51.421875 25.328125 -51.421875 C 26.421875 -51.421875 27.410156 -52.300781 27.410156 -53.503906 C 27.410156 -60.304688 21.820312 -65.785156 15.019531 -65.785156 C 8.222656 -65.785156 2.742188 -60.304688 2.742188 -53.503906 C 2.742188 -49.121094 4.933594 -45.390625 8.222656 -43.199219 C 4.933594 -41.007812 2.742188 -37.167969 2.742188 -32.894531 L 2.742188 -12.390625 C 2.742188 -5.480469 8.222656 0 15.019531 0 C 21.820312 0 27.410156 -5.480469 27.410156 -12.390625 L 27.410156 -32.894531 C 27.410156 -33.988281 26.421875 -34.976562 25.328125 -34.976562 Z M 25.328125 -34.976562 "/></g></g></g><g fill="#00ffff" fill-opacity="1"><g transform="translate(0.740122, 70.707257)"><g><path d="M 25.328125 -34.976562 C 24.121094 -34.976562 23.246094 -33.988281 23.246094 -32.894531 L 23.246094 -12.390625 C 23.246094 -7.785156 19.515625 -4.167969 15.019531 -4.167969 C 10.527344 -4.167969 6.796875 -7.785156 6.796875 -12.390625 L 6.796875 -32.894531 C 6.796875 -37.386719 10.527344 -41.117188 15.019531 -41.117188 C 16.117188 -41.117188 17.105469 -41.992188 17.105469 -43.199219 C 17.105469 -44.296875 16.117188 -45.28125 15.019531 -45.28125 C 10.527344 -45.28125 6.796875 -48.902344 6.796875 -53.503906 C 6.796875 -58 10.527344 -61.730469 15.019531 -61.730469 C 19.515625 -61.730469 23.246094 -58 23.246094 -53.503906 C 23.246094 -52.300781 24.121094 -51.421875 25.328125 -51.421875 C 26.421875 -51.421875 27.410156 -52.300781 27.410156 -53.503906 C 27.410156 -60.304688 21.820312 -65.785156 15.019531 -65.785156 C 8.222656 -65.785156 2.742188 -60.304688 2.742188 -53.503906 C 2.742188 -49.121094 4.933594 -45.390625 8.222656 -43.199219 C 4.933594 -41.007812 2.742188 -37.167969 2.742188 -32.894531 L 2.742188 -12.390625 C 2.742188 -5.480469 8.222656 0 15.019531 0 C 21.820312 0 27.410156 -5.480469 27.410156 -12.390625 L 27.410156 -32.894531 C 27.410156 -33.988281 26.421875 -34.976562 25.328125 -34.976562 Z M 25.328125 -34.976562 "/></g></g></g><g fill="#000000" fill-opacity="1"><g transform="translate(3.700658, 70.707257)"><g><path d="M 25.328125 -34.976562 C 24.121094 -34.976562 23.246094 -33.988281 23.246094 -32.894531 L 23.246094 -12.390625 C 23.246094 -7.785156 19.515625 -4.167969 15.019531 -4.167969 C 10.527344 -4.167969 6.796875 -7.785156 6.796875 -12.390625 L 6.796875 -32.894531 C 6.796875 -37.386719 10.527344 -41.117188 15.019531 -41.117188 C 16.117188 -41.117188 17.105469 -41.992188 17.105469 -43.199219 C 17.105469 -44.296875 16.117188 -45.28125 15.019531 -45.28125 C 10.527344 -45.28125 6.796875 -48.902344 6.796875 -53.503906 C 6.796875 -58 10.527344 -61.730469 15.019531 -61.730469 C 19.515625 -61.730469 23.246094 -58 23.246094 -53.503906 C 23.246094 -52.300781 24.121094 -51.421875 25.328125 -51.421875 C 26.421875 -51.421875 27.410156 -52.300781 27.410156 -53.503906 C 27.410156 -60.304688 21.820312 -65.785156 15.019531 -65.785156 C 8.222656 -65.785156 2.742188 -60.304688 2.742188 -53.503906 C 2.742188 -49.121094 4.933594 -45.390625 8.222656 -43.199219 C 4.933594 -41.007812 2.742188 -37.167969 2.742188 -32.894531 L 2.742188 -12.390625 C 2.742188 -5.480469 8.222656 0 15.019531 0 C 21.820312 0 27.410156 -5.480469 27.410156 -12.390625 L 27.410156 -32.894531 C 27.410156 -33.988281 26.421875 -34.976562 25.328125 -34.976562 Z M 25.328125 -34.976562 "/></g></g></g><g fill="#ff00ff" fill-opacity="1"><g transform="translate(6.661193, 70.707257)"><g><path d="M 15.019531 -41.117188 C 21.820312 -41.117188 27.410156 -46.597656 27.410156 -53.503906 L 27.410156 -63.703125 C 27.410156 -64.910156 26.421875 -65.785156 25.328125 -65.785156 C 24.230469 -65.785156 23.246094 -64.910156 23.246094 -63.703125 L 23.246094 -53.503906 C 23.246094 -48.902344 19.625 -45.28125 15.019531 -45.28125 C 10.527344 -45.28125 6.796875 -48.902344 6.796875 -53.503906 L 6.796875 -63.703125 C 6.796875 -64.910156 5.921875 -65.785156 4.824219 -65.785156 C 3.617188 -65.785156 2.742188 -64.910156 2.742188 -63.703125 L 2.742188 -53.503906 C 2.742188 -49.121094 4.933594 -45.390625 8.222656 -43.199219 C 4.933594 -41.007812 2.742188 -37.167969 2.742188 -32.894531 C 2.742188 -26.09375 8.222656 -20.613281 15.019531 -20.613281 C 19.625 -20.613281 23.246094 -16.886719 23.246094 -12.390625 C 23.246094 -7.785156 19.625 -4.167969 15.019531 -4.167969 C 10.527344 -4.167969 6.796875 -7.785156 6.796875 -12.390625 C 6.796875 -13.484375 5.921875 -14.363281 4.824219 -14.363281 C 3.617188 -14.363281 2.742188 -13.484375 2.742188 -12.390625 C 2.742188 -5.480469 8.222656 0 15.019531 0 C 21.820312 0 27.410156 -5.480469 27.410156 -12.390625 C 27.410156 -19.1875 21.820312 -24.667969 15.019531 -24.667969 C 10.527344 -24.667969 6.796875 -28.398438 6.796875 -32.894531 C 6.796875 -37.386719 10.527344 -41.117188 15.019531 -41.117188 Z M 15.019531 -41.117188 "/></g></g></g><g fill="#00ffff" fill-opacity="1"><g transform="translate(0.740122, 70.707257)"><g><path d="M 15.019531 -41.117188 C 21.820312 -41.117188 27.410156 -46.597656 27.410156 -53.503906 L 27.410156 -63.703125 C 27.410156 -64.910156 26.421875 -65.785156 25.328125 -65.785156 C 24.230469 -65.785156 23.246094 -64.910156 23.246094 -63.703125 L 23.246094 -53.503906 C 23.246094 -48.902344 19.625 -45.28125 15.019531 -45.28125 C 10.527344 -45.28125 6.796875 -48.902344 6.796875 -53.503906 L 6.796875 -63.703125 C 6.796875 -64.910156 5.921875 -65.785156 4.824219 -65.785156 C 3.617188 -65.785156 2.742188 -64.910156 2.742188 -63.703125 L 2.742188 -53.503906 C 2.742188 -49.121094 4.933594 -45.390625 8.222656 -43.199219 C 4.933594 -41.007812 2.742188 -37.167969 2.742188 -32.894531 C 2.742188 -26.09375 8.222656 -20.613281 15.019531 -20.613281 C 19.625 -20.613281 23.246094 -16.886719 23.246094 -12.390625 C 23.246094 -7.785156 19.625 -4.167969 15.019531 -4.167969 C 10.527344 -4.167969 6.796875 -7.785156 6.796875 -12.390625 C 6.796875 -13.484375 5.921875 -14.363281 4.824219 -14.363281 C 3.617188 -14.363281 2.742188 -13.484375 2.742188 -12.390625 C 2.742188 -5.480469 8.222656 0 15.019531 0 C 21.820312 0 27.410156 -5.480469 27.410156 -12.390625 C 27.410156 -19.1875 21.820312 -24.667969 15.019531 -24.667969 C 10.527344 -24.667969 6.796875 -28.398438 6.796875 -32.894531 C 6.796875 -37.386719 10.527344 -41.117188 15.019531 -41.117188 Z M 15.019531 -41.117188 "/></g></g></g><g fill="#000000" fill-opacity="1"><g transform="translate(3.700658, 70.707257)"><g><path d="M 15.019531 -41.117188 C 21.820312 -41.117188 27.410156 -46.597656 27.410156 -53.503906 L 27.410156 -63.703125 C 27.410156 -64.910156 26.421875 -65.785156 25.328125 -65.785156 C 24.230469 -65.785156 23.246094 -64.910156 23.246094 -63.703125 L 23.246094 -53.503906 C 23.246094 -48.902344 19.625 -45.28125 15.019531 -45.28125 C 10.527344 -45.28125 6.796875 -48.902344 6.796875 -53.503906 L 6.796875 -63.703125 C 6.796875 -64.910156 5.921875 -65.785156 4.824219 -65.785156 C 3.617188 -65.785156 2.742188 -64.910156 2.742188 -63.703125 L 2.742188 -53.503906 C 2.742188 -49.121094 4.933594 -45.390625 8.222656 -43.199219 C 4.933594 -41.007812 2.742188 -37.167969 2.742188 -32.894531 C 2.742188 -26.09375 8.222656 -20.613281 15.019531 -20.613281 C 19.625 -20.613281 23.246094 -16.886719 23.246094 -12.390625 C 23.246094 -7.785156 19.625 -4.167969 15.019531 -4.167969 C 10.527344 -4.167969 6.796875 -7.785156 6.796875 -12.390625 C 6.796875 -13.484375 5.921875 -14.363281 4.824219 -14.363281 C 3.617188 -14.363281 2.742188 -13.484375 2.742188 -12.390625 C 2.742188 -5.480469 8.222656 0 15.019531 0 C 21.820312 0 27.410156 -5.480469 27.410156 -12.390625 C 27.410156 -19.1875 21.820312 -24.667969 15.019531 -24.667969 C 10.527344 -24.667969 6.796875 -28.398438 6.796875 -32.894531 C 6.796875 -37.386719 10.527344 -41.117188 15.019531 -41.117188 Z M 15.019531 -41.117188 "/></g></g></g><g fill="#ffffff" fill-opacity="1"><g transform="translate(3.700658, 70.707257)"><g><path d="M 25.328125 -34.976562 C 24.121094 -34.976562 23.246094 -33.988281 23.246094 -32.894531 L 23.246094 -12.390625 C 23.246094 -7.785156 19.515625 -4.167969 15.019531 -4.167969 C 10.527344 -4.167969 6.796875 -7.785156 6.796875 -12.390625 L 6.796875 -32.894531 C 6.796875 -37.386719 10.527344 -41.117188 15.019531 -41.117188 C 16.117188 -41.117188 17.105469 -41.992188 17.105469 -43.199219 C 17.105469 -44.296875 16.117188 -45.28125 15.019531 -45.28125 C 10.527344 -45.28125 6.796875 -48.902344 6.796875 -53.503906 C 6.796875 -58 10.527344 -61.730469 15.019531 -61.730469 C 19.515625 -61.730469 23.246094 -58 23.246094 -53.503906 C 23.246094 -52.300781 24.121094 -51.421875 25.328125 -51.421875 C 26.421875 -51.421875 27.410156 -52.300781 27.410156 -53.503906 C 27.410156 -60.304688 21.820312 -65.785156 15.019531 -65.785156 C 8.222656 -65.785156 2.742188 -60.304688 2.742188 -53.503906 C 2.742188 -49.121094 4.933594 -45.390625 8.222656 -43.199219 C 4.933594 -41.007812 2.742188 -37.167969 2.742188 -32.894531 L 2.742188 -12.390625 C 2.742188 -5.480469 8.222656 0 15.019531 0 C 21.820312 0 27.410156 -5.480469 27.410156 -12.390625 L 27.410156 -32.894531 C 27.410156 -33.988281 26.421875 -34.976562 25.328125 -34.976562 Z M 25.328125 -34.976562 "/></g></g></g><g fill="#ffffff" fill-opacity="1"><g transform="translate(3.700658, 70.707257)"><g><path d="M 15.019531 -41.117188 C 21.820312 -41.117188 27.410156 -46.597656 27.410156 -53.503906 L 27.410156 -63.703125 C 27.410156 -64.910156 26.421875 -65.785156 25.328125 -65.785156 C 24.230469 -65.785156 23.246094 -64.910156 23.246094 -63.703125 L 23.246094 -53.503906 C 23.246094 -48.902344 19.625 -45.28125 15.019531 -45.28125 C 10.527344 -45.28125 6.796875 -48.902344 6.796875 -53.503906 L 6.796875 -63.703125 C 6.796875 -64.910156 5.921875 -65.785156 4.824219 -65.785156 C 3.617188 -65.785156 2.742188 -64.910156 2.742188 -63.703125 L 2.742188 -53.503906 C 2.742188 -49.121094 4.933594 -45.390625 8.222656 -43.199219 C 4.933594 -41.007812 2.742188 -37.167969 2.742188 -32.894531 C 2.742188 -26.09375 8.222656 -20.613281 15.019531 -20.613281 C 19.625 -20.613281 23.246094 -16.886719 23.246094 -12.390625 C 23.246094 -7.785156 19.625 -4.167969 15.019531 -4.167969 C 10.527344 -4.167969 6.796875 -7.785156 6.796875 -12.390625 C 6.796875 -13.484375 5.921875 -14.363281 4.824219 -14.363281 C 3.617188 -14.363281 2.742188 -13.484375 2.742188 -12.390625 C 2.742188 -5.480469 8.222656 0 15.019531 0 C 21.820312 0 27.410156 -5.480469 27.410156 -12.390625 C 27.410156 -19.1875 21.820312 -24.667969 15.019531 -24.667969 C 10.527344 -24.667969 6.796875 -28.398438 6.796875 -32.894531 C 6.796875 -37.386719 10.527344 -41.117188 15.019531 -41.117188 Z M 15.019531 -41.117188 "/></g></g></g></svg>