<svg xmlns="http://www.w3.org/2000/svg" xmlns:xlink="http://www.w3.org/1999/xlink" width="50" zoomAndPan="magnify" viewBox="0 0 37.5 74.999998" height="100" preserveAspectRatio="xMidYMid meet" version="1.0"><defs><g/></defs><g fill="#000000" fill-opacity="1"><g transform="translate(3.700658, 70.638826)"><g><path d="M 25.328125 -34.976562 C 24.121094 -34.976562 23.246094 -33.992188 23.246094 -32.894531 L 23.246094 -12.390625 C 23.246094 -7.785156 19.515625 -4.167969 15.023438 -4.167969 C 10.527344 -4.167969 6.796875 -7.785156 6.796875 -12.390625 L 6.796875 -32.894531 C 6.796875 -37.390625 10.527344 -41.117188 15.023438 -41.117188 C 16.117188 -41.117188 17.105469 -41.996094 17.105469 -43.203125 C 17.105469 -44.296875 16.117188 -45.285156 15.023438 -45.285156 C 10.527344 -45.285156 6.796875 -48.902344 6.796875 -53.507812 C 6.796875 -58.003906 10.527344 -61.734375 15.023438 -61.734375 C 19.515625 -61.734375 23.246094 -58.003906 23.246094 -53.507812 C 23.246094 -52.300781 24.121094 -51.425781 25.328125 -51.425781 C 26.425781 -51.425781 27.414062 -52.300781 27.414062 -53.507812 C 27.414062 -60.308594 21.820312 -65.789062 15.023438 -65.789062 C 8.222656 -65.789062 2.742188 -60.308594 2.742188 -53.507812 C 2.742188 -49.121094 4.933594 -45.394531 8.222656 -43.203125 C 4.933594 -41.007812 2.742188 -37.171875 2.742188 -32.894531 L 2.742188 -12.390625 C 2.742188 -5.484375 8.222656 0 15.023438 0 C 21.820312 0 27.414062 -5.484375 27.414062 -12.390625 L 27.414062 -32.894531 C 27.414062 -33.992188 26.425781 -34.976562 25.328125 -34.976562 Z M 25.328125 -34.976562 "/></g></g></g><g fill="#000000" fill-opacity="1"><g transform="translate(3.700658, 70.638826)"><g><path d="M 15.023438 -41.117188 C 21.820312 -41.117188 27.414062 -46.601562 27.414062 -53.507812 L 27.414062 -63.707031 C 27.414062 -64.914062 26.425781 -65.789062 25.328125 -65.789062 C 24.234375 -65.789062 23.246094 -64.914062 23.246094 -63.707031 L 23.246094 -53.507812 C 23.246094 -48.902344 19.628906 -45.285156 15.023438 -45.285156 C 10.527344 -45.285156 6.796875 -48.902344 6.796875 -53.507812 L 6.796875 -63.707031 C 6.796875 -64.914062 5.921875 -65.789062 4.824219 -65.789062 C 3.617188 -65.789062 2.742188 -64.914062 2.742188 -63.707031 L 2.742188 -53.507812 C 2.742188 -49.121094 4.933594 -45.394531 8.222656 -43.203125 C 4.933594 -41.007812 2.742188 -37.171875 2.742188 -32.894531 C 2.742188 -26.097656 8.222656 -20.613281 15.023438 -20.613281 C 19.628906 -20.613281 23.246094 -16.886719 23.246094 -12.390625 C 23.246094 -7.785156 19.628906 -4.167969 15.023438 -4.167969 C 10.527344 -4.167969 6.796875 -7.785156 6.796875 -12.390625 C 6.796875 -13.488281 5.921875 -14.363281 4.824219 -14.363281 C 3.617188 -14.363281 2.742188 -13.488281 2.742188 -12.390625 C 2.742188 -5.484375 8.222656 0 15.023438 0 C 21.820312 0 27.414062 -5.484375 27.414062 -12.390625 C 27.414062 -19.1875 21.820312 -24.671875 15.023438 -24.671875 C 10.527344 -24.671875 6.796875 -28.398438 6.796875 -32.894531 C 6.796875 -37.390625 10.527344 -41.117188 15.023438 -41.117188 Z M 15.023438 -41.117188 "/></g></g></g></svg>