<svg xmlns="http://www.w3.org/2000/svg" version="1.1" xmlns:xlink="http://www.w3.org/1999/xlink" xmlns:svgjs="http://svgjs.dev/svgjs" viewBox="0 0 800 800"><defs><filter id="nnneon-filter" x="-100%" y="-100%" width="400%" height="400%" filterUnits="objectBoundingBox" primitiveUnits="userSpaceOnUse" color-interpolation-filters="sRGB">
	<feGaussianBlur stdDeviation="19 15" x="0%" y="0%" width="100%" height="100%" in="SourceGraphic" edgeMode="none" result="blur"></feGaussianBlur></filter><filter id="nnneon-filter2" x="-100%" y="-100%" width="400%" height="400%" filterUnits="objectBoundingBox" primitiveUnits="userSpaceOnUse" color-interpolation-filters="sRGB">
	<feGaussianBlur stdDeviation="16 16" x="0%" y="0%" width="100%" height="100%" in="SourceGraphic" edgeMode="none" result="blur"></feGaussianBlur></filter></defs><g stroke-width="13" stroke="hsl(205, 69%, 50%)" fill="none" transform="rotate(21, 400, 400)"><path d="M400 343.9971008300781L448.5000030991187 371.9985498419169V428.0014478655944L400 456.00289687743316L351.4999969008813 428.0014478655944V371.9985498419169L400 343.9971008300781Z " filter="url(#nnneon-filter)"></path><path d="M410 343.9971008300781L458.5000030991187 371.9985498419169V428.0014478655944L410 456.00289687743316L361.4999969008813 428.0014478655944V371.9985498419169L410 343.9971008300781Z " filter="url(#nnneon-filter2)" opacity="0.14"></path><path d="M390 343.9971008300781L438.5000030991187 371.9985498419169V428.0014478655944L390 456.00289687743316L341.4999969008813 428.0014478655944V371.9985498419169L390 343.9971008300781Z " filter="url(#nnneon-filter2)" opacity="0.14"></path><path d="M400 343.9971008300781L448.5000030991187 371.9985498419169V428.0014478655944L400 456.00289687743316L351.4999969008813 428.0014478655944V371.9985498419169L400 343.9971008300781Z "></path></g></svg>